<svg width="60" height="60" viewBox="0 0 60 60" fill="none" xmlns="http://www.w3.org/2000/svg">
<path d="M54.375 37.5H5.625C4.58813 37.5 3.75 38.3381 3.75 39.375V54.375C3.75 55.4119 4.58813 56.25 5.625 56.25H54.375C55.4119 56.25 56.25 55.4119 56.25 54.375V39.375C56.25 38.3381 55.4119 37.5 54.375 37.5ZM52.5 52.5H7.5V41.25H52.5V52.5Z" fill="#FFCF74"/>
<path d="M18.75 24.375C17.7131 24.375 16.875 25.2131 16.875 26.25V29.2238L16.3256 28.6744C15.5925 27.9413 14.4075 27.9413 13.6744 28.6744C12.9412 29.4075 12.9412 30.5925 13.6744 31.3256L17.4244 35.0756C17.79 35.4413 18.27 35.625 18.75 35.625C19.23 35.625 19.71 35.4413 20.0756 35.0756L23.8256 31.3256C24.5587 30.5925 24.5587 29.4075 23.8256 28.6744C23.0925 27.9413 21.9075 27.9413 21.1744 28.6744L20.625 29.2238V26.25C20.625 25.2131 19.7869 24.375 18.75 24.375Z" fill="#FFCF74"/>
<path d="M41.25 35.625C42.2869 35.625 43.125 34.7869 43.125 33.75V30.7762L43.6744 31.3256C44.04 31.6912 44.52 31.875 45 31.875C45.48 31.875 45.96 31.6912 46.3256 31.3256C47.0587 30.5925 47.0587 29.4075 46.3256 28.6744L42.5756 24.9244C41.8425 24.1912 40.6575 24.1912 39.9244 24.9244L36.1744 28.6744C35.4412 29.4075 35.4412 30.5925 36.1744 31.3256C36.9075 32.0587 38.0925 32.0587 38.8256 31.3256L39.375 30.7762V33.75C39.375 34.7869 40.2131 35.625 41.25 35.625Z" fill="#FFCF74"/>
<path d="M13.125 22.5H46.875C52.0444 22.5 56.25 18.2944 56.25 13.125C56.25 7.95563 52.0444 3.75 46.875 3.75H13.125C7.95563 3.75 3.75 7.95563 3.75 13.125C3.75 18.2944 7.95563 22.5 13.125 22.5ZM13.125 7.5H46.875C49.9763 7.5 52.5 10.0237 52.5 13.125C52.5 16.2263 49.9763 18.75 46.875 18.75H13.125C10.0237 18.75 7.5 16.2263 7.5 13.125C7.5 10.0237 10.0237 7.5 13.125 7.5Z" fill="#FFCF74"/>
</svg>
