<svg width="60" height="60" viewBox="0 0 60 60" fill="none" xmlns="http://www.w3.org/2000/svg">
<path d="M52.1024 47.4172L39.4261 22.6529V3.51562H41.1496C42.1204 3.51562 42.9074 2.72859 42.9074 1.75781C42.9074 0.787031 42.1204 0 41.1496 0H18.85C17.8792 0 17.0922 0.787031 17.0922 1.75781C17.0922 2.72859 17.8792 3.51562 18.85 3.51562H20.5735V22.6529L7.89717 47.4173C6.51447 50.1185 6.63424 53.2767 8.21733 55.8656C9.80041 58.4544 12.5571 60 15.5917 60H44.4079C47.4424 60 50.1992 58.4544 51.7822 55.8656C53.3655 53.2767 53.4851 50.1185 52.1024 47.4172ZM23.8961 23.8777C24.023 23.6297 24.0891 23.3552 24.0891 23.0767V3.51562H35.9104V23.0767C35.9104 23.3551 35.9765 23.6297 36.1034 23.8777L40.9946 33.433H19.0049L23.8961 23.8777ZM44.4079 56.4844H15.5917C13.7915 56.4844 12.1559 55.5674 11.2166 54.0315C10.6882 53.1675 10.4346 52.1967 10.4598 51.2273C10.4739 50.6889 10.574 50.1507 10.7608 49.6317C10.8355 49.4241 17.2053 36.9486 17.2053 36.9486H42.7943C42.7943 36.9486 49.0721 49.2205 49.1163 49.3227C49.3822 49.9355 49.523 50.5811 49.5397 51.2273C49.5649 52.1967 49.3113 53.1675 48.7829 54.0315C47.8438 55.5674 46.2082 56.4844 44.4079 56.4844Z" fill="#FFCF74"/>
</svg>
