<svg width="60" height="60" viewBox="0 0 60 60" fill="none" xmlns="http://www.w3.org/2000/svg">
<g clip-path="url(#clip0_303_227)">
<path d="M48.0207 35.5321C47.7246 35.5323 47.435 35.4461 47.1873 35.2841C46.9395 35.122 46.7445 34.8912 46.6261 34.6198C46.5077 34.3485 46.4712 34.0485 46.5208 33.7567C46.5705 33.4649 46.7043 33.1939 46.9058 32.9771C47.0872 32.7815 51.4169 28.1821 58.4761 28.1821C58.8793 28.1821 59.266 28.3423 59.5511 28.6274C59.8362 28.9125 59.9963 29.2992 59.9963 29.7024C59.9963 30.1056 59.8362 30.4923 59.5511 30.7774C59.266 31.0625 58.8793 31.2227 58.4761 31.2227C52.7852 31.2227 49.171 35.0061 49.1355 35.0446C48.9936 35.1987 48.8212 35.3215 48.6293 35.4055C48.4374 35.4894 48.2301 35.5325 48.0207 35.5321Z" fill="#FFCF74"/>
<path d="M21.4281 41.5683C21.1605 41.568 20.8977 41.497 20.6663 41.3626C20.4349 41.2282 20.2431 41.0351 20.1103 40.8028C19.9774 40.5705 19.9082 40.3072 19.9097 40.0396C19.9112 39.772 19.9832 39.5096 20.1187 39.2788C24.0379 32.5956 28.7903 28.796 34.242 27.9831C42.3146 26.7811 48.7808 32.6402 49.0524 32.8906C49.3489 33.1639 49.5247 33.5439 49.541 33.9468C49.5574 34.3498 49.413 34.7427 49.1396 35.0392C48.8662 35.3357 48.4863 35.5115 48.0833 35.5278C47.6804 35.5441 47.2874 35.3998 46.991 35.1264C46.9372 35.0767 41.2899 29.995 34.6676 30.9943C30.1798 31.6713 26.1673 34.9764 22.7406 40.8173C22.6064 41.0461 22.4146 41.2358 22.1844 41.3675C21.9541 41.4993 21.6934 41.5685 21.4281 41.5683Z" fill="#FFCF74"/>
<path d="M39.5811 51.9834C37.623 51.9834 35.4055 51.657 32.9548 50.8037C32.574 50.6705 32.2618 50.3915 32.0867 50.0281C31.9117 49.6646 31.8881 49.2466 32.0213 48.8658C32.1545 48.4851 32.4335 48.1728 32.7969 47.9978C33.1603 47.8227 33.5784 47.7992 33.9592 47.9324C43.6727 51.3135 48.9034 45.1209 48.9592 45.0581C49.0823 44.8939 49.2373 44.7563 49.415 44.6537C49.5926 44.551 49.7892 44.4854 49.9929 44.4607C50.1966 44.4361 50.4032 44.4529 50.6002 44.5102C50.7972 44.5675 50.9806 44.6641 51.1393 44.7942C51.298 44.9243 51.4287 45.0851 51.5236 45.2671C51.6185 45.449 51.6755 45.6483 51.6913 45.8529C51.7071 46.0574 51.6814 46.2631 51.6156 46.4574C51.5498 46.6518 51.4453 46.8308 51.3085 46.9837C51.2396 47.0668 49.5926 49.0462 46.4994 50.4834C44.3308 51.4836 41.9692 51.9957 39.5811 51.9834Z" fill="#FFCF74"/>
<path d="M26.0273 28.3918C25.8981 28.3915 25.7694 28.3752 25.6442 28.3431C25.4509 28.293 25.2695 28.2052 25.1101 28.0849C24.9507 27.9646 24.8167 27.8141 24.7155 27.6419C24.6143 27.4698 24.548 27.2794 24.5204 27.0817C24.4929 26.8839 24.5045 26.6827 24.5547 26.4894L28.406 11.6759C28.4481 11.4743 28.5306 11.2834 28.6486 11.1147C28.7666 10.946 28.9177 10.803 29.0926 10.6944C29.2676 10.5858 29.4627 10.5139 29.6663 10.483C29.8699 10.4521 30.0776 10.4629 30.2769 10.5147C30.4761 10.5666 30.6628 10.6583 30.8256 10.7844C30.9883 10.9105 31.1238 11.0684 31.2237 11.2485C31.3236 11.4285 31.3858 11.627 31.4067 11.8318C31.4276 12.0366 31.4067 12.2436 31.3452 12.4401L27.4939 27.2536C27.4095 27.5786 27.2198 27.8666 26.9545 28.0725C26.6892 28.2784 26.3632 28.3907 26.0273 28.3918Z" fill="#FFCF74"/>
<path d="M35.219 60.0032C27.496 60.0032 21.044 57.6985 16.8937 55.6948C14.0443 54.3306 11.0314 53.338 7.92913 52.7414C4.39501 52.0512 1.91494 50.4894 0.75852 48.2242C-0.419183 45.9195 -0.216479 43.0046 1.35953 39.5607C4.99399 28.4363 13.4548 15.0488 19.921 5.76709C20.8075 4.49657 21.9506 3.42609 23.2765 2.62478C24.6024 1.82348 26.0816 1.30917 27.6187 1.11507L36.0876 0.0478371C37.6088 -0.144868 39.1458 0.255181 40.3801 1.16506C41.6143 2.07493 42.4511 3.42486 42.717 4.935L43.471 9.20595C43.6233 10.0702 43.5588 10.9588 43.2833 11.7921C43.0079 12.6253 42.53 13.3772 41.8925 13.9804C41.2551 14.5836 40.478 15.0193 39.6308 15.2484C38.7836 15.4775 37.8928 15.4928 37.0383 15.2931L29.5261 13.5387C29.1334 13.4471 28.7932 13.2031 28.5803 12.8606C28.3674 12.5181 28.2993 12.1051 28.391 11.7124C28.4826 11.3196 28.7265 10.9794 29.069 10.7665C29.4115 10.5537 29.8246 10.4856 30.2173 10.5772L37.7295 12.3316C38.0946 12.418 38.4755 12.4123 38.8379 12.315C39.2003 12.2177 39.5329 12.0318 39.8056 11.7741C40.0784 11.5164 40.2828 11.195 40.4006 10.8387C40.5183 10.4824 40.5457 10.1024 40.4801 9.73297L39.7261 5.46203C39.5952 4.72043 39.184 4.05761 38.5778 3.61083C37.9716 3.16405 37.2168 2.96755 36.4697 3.06203L27.9977 4.12723C26.8828 4.26825 25.81 4.64158 24.8484 5.2231C23.8868 5.80462 23.0579 6.5814 22.4153 7.50324C16.0504 16.6411 7.72744 29.8005 4.22271 40.5843C4.20437 40.6421 4.18236 40.6986 4.15683 40.7536C2.95784 43.3431 2.72575 45.3904 3.46663 46.8407C4.3717 48.6124 6.70987 49.4049 8.51291 49.7566C11.8709 50.4033 15.132 51.4783 18.2163 52.9553C25.1791 56.3181 39.1393 60.5951 54.3987 51.4583C54.57 51.3558 54.7598 51.2879 54.9573 51.2588C55.1548 51.2296 55.3562 51.2396 55.5498 51.2882C55.7434 51.3368 55.9256 51.423 56.0859 51.5421C56.2462 51.6611 56.3815 51.8105 56.484 51.9818C56.5866 52.1531 56.6544 52.3429 56.6836 52.5404C56.7128 52.7379 56.7028 52.9392 56.6542 53.1329C56.6056 53.3265 56.5193 53.5087 56.4003 53.669C56.2813 53.8293 56.1318 53.9645 55.9606 54.0671C48.5812 58.483 41.4815 60.0032 35.219 60.0032Z" fill="#FFCF74"/>
</g>
<defs>
<clipPath id="clip0_303_227">
<rect width="60" height="60" fill="white"/>
</clipPath>
</defs>
</svg>
