<svg width="36" height="28" viewBox="0 0 36 28" fill="none" xmlns="http://www.w3.org/2000/svg">
<path d="M3.95301 24.9201C1.94089 22.7777 0.860596 20.3748 0.860596 16.4797C0.860596 9.62549 5.66038 3.4822 12.6403 0.444824L14.3848 3.14341C7.8698 6.67624 6.59611 11.2607 6.0882 14.1512C7.13724 13.6068 8.51056 13.4168 9.85653 13.5422C13.3807 13.8692 16.1586 16.7695 16.1586 20.3748C16.1586 22.1926 15.4382 23.936 14.156 25.2214C12.8737 26.5068 11.1346 27.2289 9.32126 27.2289C8.31844 27.2202 7.32738 27.0115 6.40576 26.6151C5.48415 26.2187 4.65039 25.6425 3.95301 24.9201ZM23.4881 24.9201C21.476 22.7777 20.3957 20.3748 20.3957 16.4797C20.3957 9.62549 25.1955 3.4822 32.1754 0.444824L33.9199 3.14341C27.4049 6.67624 26.1312 11.2607 25.6233 14.1512C26.6724 13.6068 28.0457 13.4168 29.3917 13.5422C32.9158 13.8692 35.6937 16.7695 35.6937 20.3748C35.6937 22.1926 34.9733 23.936 33.6911 25.2214C32.4089 26.5068 30.6698 27.2289 28.8564 27.2289C27.8536 27.2202 26.8625 27.0115 25.9409 26.6151C25.0193 26.2187 24.1855 25.6425 23.4881 24.9201Z" fill="#FFCF74"/>
</svg>
