<svg width="54" height="60" viewBox="0 0 54 60" fill="none" xmlns="http://www.w3.org/2000/svg">
<path d="M53.588 33.9857C54.0333 35.082 53.5057 36.3317 52.4094 36.7772L46.4552 39.1987L51.9658 42.5099C52.9935 43.0968 53.3507 44.4056 52.764 45.4334C52.177 46.4612 50.8682 46.8184 49.8404 46.2316C49.8128 46.2158 49.7856 46.1993 49.7585 46.1823L44.2483 42.8715L44.9058 49.2679C45.0077 50.447 44.1344 51.4854 42.9553 51.5873C41.8029 51.687 40.7794 50.8539 40.643 49.7053L39.6572 40.1128L29.127 33.787V46.0713L36.8413 51.857C37.7881 52.5671 37.98 53.9103 37.2698 54.8571C36.5597 55.8038 35.2165 55.9957 34.2698 55.2856L29.1268 51.4285V57.8571C29.1268 59.0405 28.1674 60 26.984 60C25.8005 60 24.8411 59.0405 24.8411 57.8571V51.4285L19.6981 55.2856C18.7514 55.9957 17.4082 55.8038 16.6981 54.8571C15.9879 53.9103 16.1798 52.5671 17.1266 51.857L24.8409 46.0713V33.787L14.3116 40.1143L13.3259 49.7068C13.224 50.886 12.1856 51.7592 11.0064 51.6573C9.82731 51.5554 8.95408 50.517 9.05597 49.3379C9.05803 49.3151 9.06027 49.2921 9.06307 49.2694L9.72056 42.873L4.21033 46.1838C3.20981 46.816 1.88624 46.5173 1.25413 45.5168C0.622012 44.5163 0.920619 43.1927 1.92114 42.5606C1.94801 42.5436 1.97545 42.5272 2.00307 42.5113L7.51367 39.2002L1.55945 36.7787C0.470283 36.3156 -0.0373487 35.0574 0.425678 33.9682C0.878254 32.9035 2.09433 32.3903 3.17286 32.8087L12.1055 36.4412L22.824 29.9997L12.1046 23.559L3.17193 27.1926C2.06858 27.6208 0.827118 27.0732 0.39899 25.9698C-0.0194326 24.8913 0.493798 23.6752 1.55852 23.2227L7.51274 20.8011L2.00251 17.4892C0.974742 16.9023 0.617533 15.5934 1.2043 14.5659C1.79124 13.5381 3.10008 13.1809 4.12766 13.7676C4.15528 13.7835 4.18253 13.7999 4.20959 13.8169L9.71981 17.1277L9.06232 10.7314C8.94157 9.55411 9.79801 8.50171 10.9753 8.38096C12.1525 8.26021 13.2049 9.11665 13.3257 10.2939L14.3115 19.8865L24.8414 26.2132V13.9285L17.1271 8.14282C16.18 7.43307 15.9876 6.09009 16.6973 5.14294C17.4071 4.1958 18.7501 4.00338 19.6972 4.71314C19.6978 4.71351 19.6981 4.71388 19.6987 4.71426L24.8416 8.57132V2.14288C24.8415 0.959461 25.8009 0 26.9843 0C28.1677 0 29.1272 0.959461 29.1272 2.14288V8.57151L34.2701 4.71444C35.2169 4.00432 36.5601 4.19617 37.2702 5.14294C37.9803 6.08971 37.7885 7.43288 36.8417 8.14301L29.1274 13.9287V26.2132L39.6572 19.8857L40.643 10.2932C40.7826 9.11796 41.8486 8.2785 43.0238 8.4181C44.1725 8.55453 45.0054 9.578 44.9058 10.7304L44.2483 17.1268L49.7585 13.816C50.759 13.1839 52.0826 13.4825 52.7147 14.4832C53.3468 15.4837 53.048 16.8073 52.0475 17.4394C52.0206 17.4564 51.9934 17.4728 51.9656 17.4887L46.4548 20.7998L52.409 23.2213C53.4982 23.6844 54.0058 24.9426 53.5428 26.0318C53.0902 27.0965 51.8741 27.6097 50.7956 27.1913L41.863 23.5588L31.1445 30.0003L41.8639 36.441L50.7965 32.8085C51.8909 32.3621 53.14 32.8874 53.5863 33.9818C53.5868 33.9829 53.5874 33.9844 53.588 33.9857Z" fill="#FFCF74"/>
</svg>
