<svg width="61" height="60" viewBox="0 0 61 60" fill="none" xmlns="http://www.w3.org/2000/svg">
<g clip-path="url(#clip0_303_370)">
<path d="M41.1347 19.3649C38.4363 16.6664 34.6268 14.9204 30.4998 14.9204C26.3728 14.9204 22.5633 16.5871 19.8649 19.3649C17.1664 22.0633 15.4204 25.8728 15.4204 29.9998C15.4204 34.1268 17.1664 37.9363 19.8649 40.6347C22.5633 43.3331 26.3728 45.0791 30.4998 45.0791C34.6268 45.0791 38.4363 43.4125 41.1347 40.6347C43.8331 37.9363 45.5791 34.1268 45.5791 29.9998C45.5791 25.8728 43.9125 22.0633 41.1347 19.3649ZM38.2776 37.7776C36.2934 39.7617 33.5156 40.9522 30.4998 40.9522C27.4839 40.9522 24.7061 39.7617 22.722 37.7776C20.7379 35.7934 19.5474 33.0156 19.5474 29.9998C19.5474 26.9839 20.7379 24.2061 22.722 22.222C24.7061 20.2379 27.4839 19.0474 30.4998 19.0474C33.5156 19.0474 36.2934 20.2379 38.2776 22.222C40.2617 24.2061 41.4522 26.9839 41.4522 29.9998C41.4522 33.0156 40.2617 35.7934 38.2776 37.7776Z" fill="#FFCF74"/>
<path d="M58.4363 27.9365H52.3252C51.2141 27.9365 50.2617 28.8889 50.2617 30C50.2617 31.1111 51.2141 32.0635 52.3252 32.0635H58.4363C59.5474 32.0635 60.4998 31.1111 60.4998 30C60.4998 28.8889 59.5474 27.9365 58.4363 27.9365Z" fill="#FFCF74"/>
<path d="M30.5 49.7617C29.3889 49.7617 28.4365 50.7141 28.4365 51.8252V57.9363C28.4365 59.0474 29.3889 59.9998 30.5 59.9998C31.6111 59.9998 32.5635 59.0474 32.5635 57.9363V51.8252C32.5635 50.7141 31.6111 49.7617 30.5 49.7617Z" fill="#FFCF74"/>
<path d="M51.6905 48.3334L47.3254 43.9683C46.6111 43.1746 45.2619 43.1746 44.4683 43.9683C43.6746 44.7619 43.6746 46.0318 44.4683 46.8254L48.8334 51.1905C49.627 51.9842 50.8969 51.9842 51.6905 51.1905C52.4842 50.3969 52.4842 49.127 51.6905 48.3334Z" fill="#FFCF74"/>
<path d="M30.5 0C29.3889 0 28.4365 0.952381 28.4365 2.06349V8.1746C28.4365 9.28571 29.3889 10.2381 30.5 10.2381C31.6111 10.2381 32.5635 9.28571 32.5635 8.1746V2.06349C32.5635 0.952381 31.6111 0 30.5 0Z" fill="#FFCF74"/>
<path d="M51.7696 8.80959C50.976 8.01594 49.7061 8.01594 48.9125 8.80959L44.5474 13.1747C43.7537 13.9683 43.7537 15.2382 44.5474 16.0318C45.2617 16.8255 46.6109 16.8255 47.4045 16.0318L51.7696 11.6667C52.5633 10.8731 52.5633 9.60324 51.7696 8.80959Z" fill="#FFCF74"/>
<path d="M8.6746 27.9365H2.56349C1.45238 27.9365 0.5 28.8889 0.5 30C0.5 31.1111 1.37302 32.0635 2.56349 32.0635H8.6746C9.78571 32.0635 10.7381 31.1111 10.7381 30C10.7381 28.8889 9.78571 27.9365 8.6746 27.9365Z" fill="#FFCF74"/>
<path d="M16.4522 43.9683C15.7379 43.1746 14.3887 43.1746 13.5951 43.9683L9.23 48.3334C8.43635 49.127 8.43635 50.3969 9.23 51.1905C10.0237 51.9842 11.2935 51.9842 12.0871 51.1905L16.4522 46.8254C17.2459 46.0318 17.2459 44.7619 16.4522 43.9683Z" fill="#FFCF74"/>
<path d="M16.4522 13.1747L12.0871 8.80959C11.2935 8.01594 10.0237 8.01594 9.23 8.80959C8.43635 9.60324 8.43635 10.8731 9.23 11.6667L13.5951 16.0318C14.3887 16.8255 15.6586 16.8255 16.4522 16.0318C17.2459 15.2382 17.2459 13.9683 16.4522 13.1747Z" fill="#FFCF74"/>
</g>
<defs>
<clipPath id="clip0_303_370">
<rect width="60" height="60" fill="white" transform="translate(0.5)"/>
</clipPath>
</defs>
</svg>
