<svg width="61" height="60" viewBox="0 0 61 60" fill="none" xmlns="http://www.w3.org/2000/svg">
<g clip-path="url(#clip0_303_262)">
<path d="M12.9448 45.9537L11.6605 44.5791L10.3761 45.9537C10.332 46.0008 9.28449 47.1263 8.23063 48.6314C6.67766 50.8493 5.92285 52.6913 5.92285 54.2624C5.92285 57.4261 8.49676 59.9999 11.6605 59.9999C14.8242 59.9999 17.398 57.4261 17.398 54.2624C17.398 52.6913 16.6432 50.8493 15.0903 48.6316C14.0366 47.1264 12.989 46.0009 12.9448 45.9537ZM11.6605 56.4843C10.4353 56.4843 9.43848 55.4876 9.43848 54.2624C9.43848 53.1913 10.5133 51.3933 11.6589 49.8895C12.7954 51.3872 13.8823 53.2025 13.8823 54.2624C13.8823 55.4876 12.8855 56.4843 11.6605 56.4843Z" fill="#FFCF74"/>
<path d="M52.8576 11.5129V15.2043H49.5565C47.2262 15.2043 45.2823 16.8851 44.8702 19.0977H38.2559C36.5562 17.0936 34.1942 15.7661 31.6204 15.347V12.248C32.5672 11.97 33.4212 11.4739 34.1242 10.8173C34.4737 10.9216 34.8373 11.0246 35.2198 11.1264C38.4156 11.9756 41.9235 12.5012 43.3411 12.5012C46.7878 12.5012 49.5919 9.69715 49.5919 6.25055C49.5919 2.80406 46.7878 0 43.3411 0C41.9235 0 38.4155 0.525703 35.2198 1.37484C34.8378 1.47633 34.4726 1.5791 34.1235 1.68316C33.0061 0.640195 31.5081 0 29.8626 0C28.217 0 26.719 0.640195 25.6016 1.68328C25.2525 1.57922 24.8872 1.47645 24.5052 1.37496C21.3095 0.525703 17.8015 0 16.3839 0C12.9373 0 10.1332 2.80406 10.1332 6.25066C10.1332 9.69727 12.9373 12.5013 16.3839 12.5013C17.8015 12.5013 21.3095 11.9756 24.5052 11.1265C24.8878 11.0248 25.2515 10.9218 25.6009 10.8175C26.304 11.4739 27.1579 11.97 28.1047 12.2481V15.3471C25.531 15.7663 23.169 17.0937 21.4692 19.0978H15.5657C9.53381 19.0978 4.62646 24.005 4.62646 30.037V42.6933H18.9233V33.3947H21.5385C23.6178 35.7969 26.6656 37.2067 29.8624 37.2067C33.0594 37.2067 36.1072 35.7969 38.1865 33.3947H44.8019C44.9776 35.865 47.0421 37.8216 49.5565 37.8216H52.8576V41.513H56.3732V11.513H52.8576V11.5129ZM43.3411 3.51562C44.8493 3.51562 46.0763 4.74258 46.0763 6.25066C46.0763 7.75875 44.8493 8.9857 43.3411 8.9857C42.4598 8.9857 39.739 8.61961 36.9229 7.93254C36.5759 7.84793 36.2508 7.76426 35.946 7.68188C36.0542 7.22191 36.1132 6.7432 36.1132 6.25066C36.1132 5.75813 36.0542 5.27941 35.946 4.81945C36.2509 4.73707 36.576 4.6534 36.9229 4.56879C39.739 3.88172 42.4598 3.51562 43.3411 3.51562ZM16.3839 8.9857C14.8758 8.9857 13.6488 7.75875 13.6488 6.25066C13.6488 4.74258 14.8758 3.51562 16.3839 3.51562C17.2653 3.51562 19.9861 3.88172 22.8021 4.56879C23.1495 4.65352 23.474 4.73719 23.7791 4.81969C23.671 5.27965 23.6119 5.75824 23.6119 6.25066C23.6119 6.74309 23.671 7.22168 23.7791 7.68164C23.474 7.76402 23.1495 7.8477 22.8021 7.93254C19.986 8.61973 17.2653 8.9857 16.3839 8.9857ZM27.1275 6.25066C27.1275 4.74258 28.3545 3.51562 29.8626 3.51562C31.3706 3.51562 32.5977 4.74258 32.5977 6.25066C32.5977 7.75875 31.3706 8.9857 29.8626 8.9857C28.3545 8.9857 27.1275 7.75875 27.1275 6.25066ZM36.445 29.8789L35.9186 30.6026C34.5115 32.5364 32.2476 33.6909 29.8624 33.6909C27.4774 33.6909 25.2135 32.5364 23.8064 30.6026L23.28 29.8789H15.4076V39.1775H8.14197V30.0369C8.14197 25.9436 11.4722 22.6133 15.5656 22.6133H23.234L23.7596 21.8743C25.1644 19.8991 27.4459 18.7199 29.8624 18.7199C32.2791 18.7199 34.5606 19.8991 35.9653 21.8743L36.4909 22.6133H44.7883V29.8789H36.445ZM49.5565 34.3058C48.8658 34.3058 48.304 33.744 48.304 33.0533V19.9725C48.304 19.2818 48.8659 18.72 49.5565 18.72H52.8576V34.3059L49.5565 34.3058Z" fill="#FFCF74"/>
</g>
<defs>
<clipPath id="clip0_303_262">
<rect width="60" height="60" fill="white" transform="translate(0.5)"/>
</clipPath>
</defs>
</svg>
