<?xml version="1.0" standalone="no"?>
<!DOCTYPE svg PUBLIC "-//W3C//DTD SVG 20010904//EN"
 "http://www.w3.org/TR/2001/REC-SVG-20010904/DTD/svg10.dtd">
<svg version="1.0" xmlns="http://www.w3.org/2000/svg"
 width="2629.000000pt" height="2629.000000pt" viewBox="0 0 2629.000000 2629.000000"
 preserveAspectRatio="xMidYMid meet">
<metadata>
Created by potrace 1.14, written by Peter Selinger 2001-2017
</metadata>
<g transform="translate(0.000000,2629.000000) scale(0.100000,-0.100000)"
fill="#000000" stroke="none">
<path d="M10678 23515 c-2 -2 -68 -6 -148 -10 -143 -7 -163 -8 -290 -19 -128
-11 -186 -17 -220 -21 -19 -3 -55 -7 -80 -10 -25 -2 -65 -7 -90 -10 -25 -4
-61 -8 -82 -10 -38 -4 -119 -15 -153 -21 -11 -2 -38 -6 -60 -9 -48 -7 -80 -13
-80 -15 0 -3 -39 -9 -85 -14 -25 -3 -45 -5 -45 -6 0 -2 -20 -6 -110 -23 -123
-24 -138 -27 -165 -33 -54 -13 -76 -17 -92 -18 -10 0 -18 -4 -18 -9 0 -4 -4
-6 -9 -3 -5 3 -29 -1 -55 -8 -25 -8 -46 -12 -46 -10 0 2 -11 -1 -26 -6 -14 -6
-37 -12 -52 -15 -15 -3 -52 -12 -82 -20 -30 -9 -67 -18 -83 -20 -15 -2 -32 -7
-37 -10 -6 -4 -23 -9 -38 -11 -15 -3 -48 -12 -73 -20 -25 -9 -52 -16 -60 -18
-8 -1 -54 -15 -104 -30 -49 -16 -94 -29 -100 -30 -5 -1 -14 -4 -20 -7 -10 -6
-55 -18 -65 -18 -3 0 -23 -7 -44 -16 -22 -9 -49 -19 -60 -21 -12 -2 -43 -13
-71 -24 -27 -10 -57 -21 -65 -22 -8 -2 -17 -5 -20 -8 -3 -3 -32 -14 -65 -24
-33 -11 -64 -23 -70 -27 -5 -4 -14 -8 -20 -8 -22 -2 -100 -36 -107 -45 -4 -6
-8 -8 -8 -4 0 6 -123 -40 -207 -78 -18 -8 -50 -21 -70 -30 -21 -8 -51 -22 -68
-29 -16 -8 -59 -27 -95 -43 -36 -17 -69 -31 -75 -33 -5 -1 -55 -25 -110 -51
-55 -27 -129 -64 -165 -81 -36 -18 -67 -34 -70 -37 -10 -10 -96 -50 -107 -50
-7 0 -13 -4 -13 -9 0 -5 -12 -14 -27 -20 -16 -6 -50 -24 -78 -39 -27 -16 -72
-41 -100 -56 -83 -47 -318 -187 -347 -208 -16 -11 -28 -16 -28 -13 0 4 -7 0
-15 -9 -8 -8 -50 -36 -93 -63 -42 -26 -81 -51 -87 -56 -5 -4 -44 -31 -86 -60
-42 -29 -105 -72 -140 -96 -82 -57 -358 -264 -384 -288 -11 -11 -28 -24 -36
-29 -19 -10 -62 -46 -269 -223 -243 -209 -469 -425 -703 -674 -169 -180 -391
-442 -532 -628 -44 -58 -90 -118 -103 -135 -93 -119 -332 -469 -332 -484 0 -6
-4 -10 -10 -10 -5 0 -10 -5 -10 -10 0 -6 -8 -23 -18 -38 -11 -15 -32 -47 -48
-72 -16 -25 -33 -48 -39 -52 -5 -4 -6 -8 -1 -8 4 0 -3 -15 -17 -34 -15 -18
-23 -36 -20 -40 4 -3 1 -6 -5 -6 -7 0 -12 -4 -12 -9 0 -6 -22 -47 -50 -93 -27
-46 -50 -88 -50 -95 0 -6 -4 -13 -8 -15 -15 -6 -295 -551 -307 -598 -1 -3 -13
-30 -27 -60 -139 -297 -325 -802 -427 -1160 -39 -138 -81 -289 -87 -318 -2
-13 -14 -60 -25 -105 -11 -45 -22 -95 -25 -112 -3 -16 -12 -55 -19 -85 -7 -30
-16 -71 -19 -90 -3 -19 -15 -82 -26 -139 -11 -58 -23 -119 -25 -135 -2 -17 -6
-40 -9 -51 -2 -11 -7 -40 -10 -65 -3 -25 -8 -54 -10 -65 -2 -11 -7 -42 -10
-70 -4 -27 -9 -68 -12 -90 -4 -22 -8 -53 -9 -70 -2 -16 -5 -48 -8 -70 -3 -22
-9 -69 -12 -105 -4 -36 -8 -83 -11 -105 -13 -128 -23 -277 -28 -422 -3 -62 -6
-116 -8 -120 -7 -12 -1 -715 7 -833 3 -58 8 -134 10 -170 2 -36 4 -65 5 -65 1
0 3 -31 6 -70 2 -38 6 -86 8 -105 2 -19 7 -75 11 -125 4 -49 9 -93 11 -96 2
-3 6 -39 9 -80 4 -41 9 -85 11 -99 3 -14 8 -41 10 -60 3 -19 10 -62 15 -95 13
-76 19 -123 21 -155 1 -14 -22 -66 -53 -120 -128 -221 -239 -491 -295 -715 -4
-16 -8 -34 -10 -40 -2 -5 -6 -23 -9 -40 -3 -16 -8 -37 -10 -45 -5 -16 -10 -45
-21 -125 -10 -69 -10 -398 0 -465 19 -128 64 -274 120 -391 26 -55 31 -63 77
-134 30 -45 35 -62 44 -125 14 -99 57 -367 64 -400 4 -20 7 -43 5 -53 -1 -9 1
-17 4 -17 4 0 8 -13 8 -29 1 -17 9 -67 18 -113 9 -46 18 -94 20 -108 3 -14 5
-25 6 -25 1 0 4 -11 6 -25 10 -70 12 -79 54 -270 12 -52 23 -104 25 -115 1
-11 8 -40 14 -65 6 -25 14 -54 16 -66 4 -17 33 -130 50 -197 6 -22 14 -53 19
-75 2 -9 11 -37 19 -62 8 -25 24 -79 36 -120 29 -98 51 -161 62 -182 5 -10 9
-23 9 -29 0 -6 6 -25 14 -42 20 -46 28 -69 33 -91 7 -38 76 -111 223 -236 29
-25 58 -50 64 -55 104 -95 558 -424 636 -462 14 -7 72 -43 96 -60 12 -10 30
-20 154 -90 52 -30 104 -59 115 -65 36 -21 309 -156 360 -178 28 -12 78 -35
112 -51 34 -16 68 -29 76 -29 7 0 17 -4 23 -8 5 -5 36 -19 69 -31 33 -13 70
-27 83 -32 54 -22 130 -49 147 -52 6 -2 15 -5 20 -8 6 -3 33 -12 60 -19 28 -7
56 -17 63 -23 6 -5 12 -6 12 -3 0 4 9 2 21 -4 11 -6 29 -13 40 -15 11 -2 54
-14 97 -25 42 -12 85 -23 95 -25 10 -2 27 -7 37 -10 28 -9 63 -17 85 -20 11
-1 27 -5 35 -8 20 -8 116 -27 160 -33 19 -3 42 -7 50 -9 8 -3 33 -7 55 -10 22
-3 51 -7 65 -10 14 -3 41 -7 60 -10 19 -2 58 -6 86 -10 28 -3 60 -7 72 -10 11
-2 65 -7 119 -10 54 -4 121 -8 148 -11 67 -5 421 -4 515 2 125 7 221 14 254
20 17 2 51 7 75 9 25 3 62 7 83 10 21 3 57 7 81 10 23 3 48 8 56 11 23 8 84
18 114 18 15 1 27 4 27 7 0 4 21 10 48 15 49 8 59 10 67 14 7 4 13 5 83 20 34
8 62 17 62 20 0 3 13 7 29 8 l29 2 0 -1781 1 -1782 32 -33 33 -34 173 0 174 0
34 33 34 33 -2 522 c-1 287 0 522 1 522 2 0 47 -39 100 -87 104 -93 131 -118
232 -208 36 -32 83 -74 105 -94 22 -20 80 -72 130 -116 49 -44 99 -89 111
-100 11 -11 36 -33 55 -50 63 -56 314 -280 319 -285 3 -3 46 -42 97 -88 l91
-82 257 2 257 3 23 57 24 58 -137 122 c-75 67 -144 129 -153 137 -9 9 -29 27
-45 42 -25 21 -132 117 -273 244 -18 16 -46 41 -61 55 -15 14 -60 54 -100 90
-40 36 -85 76 -100 90 -29 27 -41 37 -195 175 -55 50 -116 104 -135 122 -19
17 -46 41 -60 53 -14 12 -59 52 -100 90 -41 38 -88 79 -103 93 l-28 24 73 65
c40 36 114 100 163 142 50 43 104 90 120 104 17 15 77 68 135 117 58 50 114
99 126 110 12 11 32 29 45 40 26 22 395 341 444 384 17 14 82 71 145 125 63
55 123 107 133 116 17 15 17 19 -4 77 l-22 61 -263 0 c-292 1 -256 8 -344 -71
-19 -18 -96 -84 -170 -147 -74 -63 -139 -120 -145 -126 -5 -6 -77 -69 -160
-139 -82 -71 -152 -132 -155 -135 -3 -3 -66 -57 -140 -120 -74 -63 -139 -120
-145 -126 -5 -6 -40 -36 -77 -68 l-68 -58 0 38 c-1 22 -1 460 -1 974 0 636 -3
938 -11 947 -7 9 -3 15 18 24 16 6 38 15 49 20 11 4 43 15 70 24 43 14 97 34
190 70 11 5 22 9 25 10 3 1 14 5 25 10 11 4 58 23 105 42 47 19 99 41 117 49
17 7 33 14 36 14 3 0 34 13 69 29 55 25 91 40 108 46 3 1 28 12 55 25 28 12
73 33 100 45 166 75 589 283 705 346 94 51 125 67 134 67 5 0 12 4 15 9 3 4
26 19 51 32 112 59 156 84 168 93 6 6 12 7 12 2 0 -5 4 -4 8 3 4 7 73 42 152
78 80 37 168 77 195 90 28 13 62 27 78 30 15 4 27 10 27 14 0 4 6 8 13 9 6 0
102 39 211 85 109 47 208 89 220 92 12 4 23 8 26 10 21 9 65 26 205 80 88 34
169 65 180 70 11 4 25 9 31 10 13 3 260 93 289 105 11 5 45 16 75 26 30 9 57
20 60 23 3 3 14 7 25 9 22 3 33 6 55 15 46 20 99 35 104 30 3 -4 6 -1 6 5 0 7
3 11 8 10 8 -2 118 29 147 42 16 7 92 30 150 46 6 1 42 12 80 24 73 22 159 48
185 55 8 2 53 15 100 28 81 24 132 37 156 43 6 1 36 9 66 18 30 8 66 18 79 20
13 3 25 5 27 7 2 2 1 1 57 14 22 5 42 9 45 10 3 1 32 7 65 14 33 8 65 14 70
16 6 1 17 5 25 8 8 3 26 7 40 10 14 2 70 14 125 25 55 12 111 24 125 26 14 3
35 7 47 10 11 2 43 8 70 12 26 3 52 9 58 12 9 6 18 7 100 16 22 3 40 6 40 7 0
0 14 3 30 4 17 2 41 6 55 9 14 2 48 7 75 11 28 3 66 9 85 12 19 3 44 7 55 9
11 1 20 3 20 4 0 1 18 4 40 5 22 2 74 7 115 11 41 4 85 8 98 9 12 0 22 2 22 5
0 3 8 6 18 6 23 1 110 12 147 20 17 3 39 6 50 6 11 0 65 7 120 15 55 7 120 15
145 18 25 2 59 6 75 9 30 5 119 15 183 21 34 3 114 12 188 21 23 3 61 7 85 9
108 10 157 15 194 20 22 3 76 7 120 10 44 3 91 8 105 10 14 2 63 7 110 10 47
3 108 8 135 10 47 4 155 12 290 22 33 2 256 6 495 8 345 2 457 6 540 20 118
18 263 40 330 50 67 9 281 44 310 50 33 7 136 23 180 29 44 5 96 14 185 31 39
8 90 17 115 20 51 7 64 9 100 18 24 6 65 12 138 22 18 2 43 7 55 11 12 4 29 8
37 9 13 2 108 16 135 20 6 1 12 3 15 4 3 1 16 4 30 7 14 2 39 6 55 9 17 3 43
8 59 10 15 2 35 7 45 9 9 3 38 8 65 11 28 4 54 9 59 12 5 3 25 7 45 10 55 6
77 10 77 13 0 1 13 4 29 6 16 2 52 8 80 14 28 7 65 14 81 16 17 3 41 7 55 10
14 3 39 8 55 11 17 2 37 7 45 10 8 3 29 7 45 9 17 3 64 11 105 20 41 9 89 18
105 20 17 3 37 7 45 10 8 3 29 8 45 10 17 3 37 8 45 11 8 3 29 7 45 9 17 2 62
10 100 20 39 9 79 17 90 19 11 1 27 5 35 8 8 3 33 8 55 12 62 10 69 12 85 18
8 3 29 8 45 11 17 3 62 12 100 21 39 9 79 18 90 20 11 2 43 9 70 15 28 7 57
14 65 15 8 1 22 5 30 8 8 3 33 9 55 13 22 4 42 8 45 9 3 1 23 5 45 10 22 4 45
10 50 14 6 3 19 6 30 7 11 1 40 7 65 14 25 7 50 13 55 14 6 1 19 5 30 9 11 3
31 8 45 11 34 7 132 31 245 61 33 9 69 17 80 19 11 2 20 4 20 5 0 2 7 4 15 6
8 1 39 10 69 19 29 8 57 13 62 10 5 -3 9 0 9 7 0 7 3 10 6 7 3 -4 20 -2 37 4
18 5 39 11 47 13 8 2 15 4 15 5 0 3 41 12 63 13 12 0 22 5 22 9 0 4 6 8 14 8
14 0 289 76 316 87 8 3 24 8 35 10 11 2 27 6 35 10 8 3 17 7 20 8 30 9 97 29
105 31 21 4 187 59 355 116 96 33 185 62 198 65 12 3 25 9 28 14 3 5 11 9 19
9 8 0 26 5 42 12 15 6 33 12 38 14 14 3 313 122 355 141 97 43 124 56 235 108
66 31 140 66 165 77 108 47 254 122 270 138 3 3 32 25 64 49 233 173 398 458
443 761 11 76 13 353 3 366 -6 6 -7 15 -2 18 4 2 0 54 -10 113 -11 59 -20 120
-21 136 -1 15 -5 27 -8 27 -4 0 -9 15 -12 33 -7 45 -11 61 -48 178 -18 57 -33
107 -33 111 -1 3 -4 10 -8 14 -5 4 -8 17 -8 29 0 11 -4 25 -8 31 -12 13 -57
127 -54 137 1 4 -3 7 -8 7 -5 0 -9 3 -8 8 2 9 -22 62 -95 213 -31 62 -55 116
-54 119 1 3 -8 19 -21 37 -12 17 -22 34 -22 37 0 3 -25 48 -55 101 -30 52 -55
99 -55 104 0 5 -3 11 -7 13 -10 4 -43 53 -62 91 -8 15 -18 27 -23 27 -4 0 -8
4 -8 9 0 11 -50 89 -84 132 -12 14 -28 36 -36 49 -8 12 -30 41 -48 64 -17 22
-35 46 -40 51 -26 35 -100 124 -119 142 -13 12 -23 25 -23 28 0 9 -298 304
-350 346 -25 20 -63 52 -86 70 -22 19 -57 45 -77 59 -20 14 -37 28 -37 33 0 4
-5 7 -11 7 -6 0 -29 15 -52 34 -50 40 -184 126 -247 158 -25 13 -47 26 -50 30
-6 8 -254 127 -335 161 -33 14 -103 39 -155 57 -52 17 -102 34 -110 37 -8 3
-20 7 -26 8 -6 2 -38 11 -70 20 -33 9 -70 19 -84 21 -14 3 -52 11 -85 19 -130
31 -302 55 -498 69 -32 2 -60 6 -61 8 -2 1 -39 75 -83 163 -114 227 -268 521
-343 655 -20 36 -39 72 -43 80 -4 8 -18 33 -30 55 -13 22 -36 63 -52 90 -16
28 -36 64 -46 80 -10 17 -27 46 -37 65 -10 19 -40 70 -65 113 -26 43 -47 81
-47 83 0 3 -5 10 -10 17 -12 14 -144 227 -153 248 -4 8 -43 70 -87 137 -44 68
-80 128 -80 133 0 5 -4 9 -9 9 -5 0 -12 8 -16 19 -3 10 -13 28 -23 39 -14 17
-52 74 -104 157 -7 11 -25 36 -39 55 -14 19 -29 42 -32 50 -4 8 -36 56 -72
105 -36 50 -83 117 -106 150 -23 33 -46 62 -51 63 -4 2 -8 9 -8 16 0 7 -8 21
-18 32 -9 10 -35 44 -57 74 -22 30 -45 61 -52 68 -7 7 -13 17 -13 21 0 4 -8
16 -17 27 -10 10 -38 46 -63 79 -24 33 -51 67 -60 76 -8 9 -22 27 -30 39 -8
12 -28 39 -45 60 -16 21 -48 61 -70 90 -22 29 -45 57 -50 64 -6 6 -39 47 -75
91 -35 44 -71 87 -79 96 -9 8 -32 35 -51 59 -19 24 -39 48 -45 54 -9 11 -77
90 -136 160 -13 16 -37 43 -54 60 -16 18 -47 52 -69 77 -213 244 -692 724
-992 994 -12 11 -48 43 -80 70 -31 28 -74 64 -93 81 -102 89 -165 143 -246
207 -33 27 -76 62 -95 78 -89 73 -217 172 -242 187 -15 9 -28 20 -28 24 0 4
-6 8 -13 8 -7 0 -19 9 -27 20 -8 11 -18 20 -22 20 -9 0 -172 122 -176 132 -2
5 -8 8 -13 8 -11 0 -120 78 -130 93 -3 5 -10 9 -15 9 -10 1 -113 67 -132 86
-7 6 -17 12 -21 12 -4 0 -16 8 -27 18 -10 10 -22 19 -26 20 -4 1 -47 28 -95
60 -49 31 -97 62 -108 68 -40 21 -70 39 -75 45 -10 11 -111 69 -120 69 -6 0
-10 4 -10 9 0 5 -8 11 -17 15 -18 5 -29 12 -85 49 -16 10 -28 15 -28 10 0 -4
-4 -3 -8 3 -12 17 -219 132 -437 243 -60 31 -113 60 -116 64 -3 5 -9 8 -13 8
-3 -1 -67 28 -142 64 -127 61 -518 235 -529 235 -3 0 -24 9 -48 19 -23 11
-107 44 -187 74 -215 82 -257 97 -277 102 -10 2 -62 20 -115 39 -54 18 -98 32
-98 29 0 -3 -6 -1 -12 5 -10 8 -63 26 -108 37 -20 5 -128 37 -140 42 -13 5
-30 10 -65 17 -5 1 -15 5 -21 8 -6 4 -21 9 -35 12 -13 2 -78 19 -144 37 -66
17 -136 35 -155 39 -19 5 -44 10 -55 13 -11 3 -60 15 -110 27 -49 12 -99 23
-110 25 -23 3 -69 12 -105 20 -14 3 -36 8 -50 11 -14 2 -59 11 -100 19 -89 17
-123 23 -170 31 -19 3 -48 8 -65 10 -16 3 -41 7 -55 9 -14 2 -38 6 -55 9 -16
3 -50 7 -75 11 -53 6 -115 15 -150 20 -14 3 -52 7 -85 10 -33 3 -76 7 -95 9
-19 3 -69 7 -110 11 -41 4 -91 9 -110 11 -207 21 -349 26 -752 29 -213 1 -389
1 -390 0z"/>
<path d="M1677 7379 c-146 -35 -255 -169 -262 -322 -6 -113 29 -201 108 -274
54 -50 95 -72 162 -87 119 -28 234 7 324 96 121 119 134 314 30 457 -34 48
-103 100 -157 119 -49 17 -157 23 -205 11z"/>
<path d="M21410 7375 c-92 -20 -165 -51 -235 -100 -68 -49 -88 -69 -131 -140
-72 -117 -86 -207 -89 -580 -2 -137 -3 -252 -4 -255 0 -3 -63 -4 -139 -2
l-139 3 -34 -38 -35 -38 1 -147 0 -147 32 -33 32 -33 143 0 143 0 0 -1148 0
-1148 32 -35 33 -34 204 0 c154 0 205 3 208 13 2 6 4 537 4 1180 -1 642 1
1168 4 1168 3 1 113 2 245 3 l240 1 33 34 32 34 0 149 0 148 -36 34 -36 34
-211 0 c-117 0 -226 1 -243 1 l-30 1 2 233 c2 261 5 295 29 330 52 80 242 83
421 6 l41 -17 44 29 c24 15 46 36 49 46 3 10 6 99 6 198 l-1 179 -65 18 c-231
62 -422 80 -550 53z"/>
<path d="M23157 7380 c-60 -15 -115 -48 -164 -98 -94 -95 -124 -224 -82 -354
19 -62 32 -82 83 -134 91 -91 205 -125 326 -99 95 21 195 102 239 195 22 47
26 69 26 145 0 107 -16 153 -82 232 -79 94 -226 142 -346 113z"/>
<path d="M3364 7321 c-10 -2 -32 -17 -49 -33 l-30 -29 0 -1849 0 -1848 35 -31
35 -31 171 0 172 0 33 38 34 37 -1 143 c-1 78 -1 142 1 142 1 0 26 -24 56 -52
203 -195 388 -293 659 -348 165 -34 420 -31 580 6 14 3 36 8 50 11 49 9 191
63 272 104 327 162 606 480 725 824 56 164 81 324 77 513 -2 137 -10 204 -38
341 -23 107 -94 282 -159 393 -132 220 -352 433 -577 555 -278 151 -632 193
-991 118 -118 -24 -296 -102 -420 -183 -83 -54 -96 -64 -172 -134 -29 -26 -55
-48 -58 -48 -3 0 -6 287 -7 638 0 350 -1 642 -1 648 -1 6 -15 26 -32 43 l-31
33 -157 1 c-87 1 -166 0 -177 -2z m1556 -1426 c91 -21 89 -20 96 -28 4 -4 13
-7 20 -7 25 0 128 -52 209 -105 370 -241 538 -711 411 -1149 -56 -191 -196
-393 -356 -513 -98 -73 -258 -148 -365 -169 -11 -2 -31 -7 -45 -10 -43 -9
-266 -12 -312 -4 -24 5 -59 11 -79 14 -51 8 -173 53 -238 88 -232 125 -422
367 -484 618 -27 107 -28 120 -32 251 -8 309 84 552 283 747 154 152 365 255
577 281 83 10 237 3 315 -14z"/>
<path d="M11967 6364 c-1 -1 -36 -4 -78 -7 -96 -8 -213 -32 -306 -63 -72 -24
-223 -92 -233 -104 -3 -4 -16 -13 -30 -20 -41 -22 -172 -125 -215 -169 -72
-75 -70 -77 -69 82 l0 142 -34 36 -34 36 -172 1 -173 1 -34 -35 -34 -35 0
-1814 0 -1814 31 -35 32 -36 176 0 175 0 33 34 33 34 0 621 c0 342 2 621 3
621 2 0 34 -26 72 -58 103 -87 108 -91 179 -137 259 -167 565 -234 913 -202
302 29 614 186 839 422 171 180 277 354 348 572 33 100 35 113 55 258 13 97
14 365 2 430 -4 17 -11 55 -17 85 -61 316 -245 615 -519 841 -241 199 -543
308 -868 313 -41 1 -74 0 -75 0z m166 -478 c315 -40 599 -254 741 -558 75
-160 96 -264 92 -458 -3 -133 -7 -168 -30 -243 -88 -292 -271 -517 -524 -642
-353 -174 -768 -114 -1084 157 -150 129 -262 340 -301 568 -13 75 -15 263 -4
330 4 19 9 53 12 75 4 22 18 73 31 113 118 355 437 619 797 660 70 8 199 8
270 -2z"/>
<path d="M15590 6362 c-180 -12 -347 -94 -507 -245 l-73 -70 2 92 2 92 -37 34
-36 34 -176 -1 -175 -1 -33 -36 -32 -36 0 -1330 0 -1330 34 -33 34 -32 177 0
176 0 33 34 33 34 3 688 c2 379 6 718 9 754 3 36 8 92 11 125 23 282 130 531
280 652 50 42 140 89 187 99 67 14 152 -1 268 -50 11 -4 37 30 100 131 47 75
86 143 88 150 2 7 7 13 12 13 16 0 21 58 9 98 -10 36 -18 43 -78 70 -103 48
-218 71 -311 64z"/>
<path d="M18128 6365 c-2 -1 -52 -5 -111 -9 -60 -3 -111 -8 -115 -10 -4 -2
-25 -7 -47 -10 -73 -12 -229 -63 -317 -104 -451 -212 -779 -677 -825 -1168
-16 -172 -6 -352 26 -501 78 -357 310 -696 618 -902 147 -98 338 -172 528
-206 137 -24 431 -24 545 0 14 3 39 8 55 10 146 26 369 121 501 214 272 192
495 511 574 821 39 150 49 245 45 420 -3 188 -7 218 -41 353 -69 272 -205 502
-420 707 -75 71 -181 154 -249 192 -181 104 -403 173 -590 184 -44 3 -101 6
-127 8 -26 2 -48 3 -50 1z m225 -495 c99 -22 201 -60 272 -104 28 -16 52 -33
55 -36 3 -3 17 -13 32 -23 91 -58 235 -224 300 -348 38 -71 85 -204 92 -259 3
-20 8 -48 11 -63 13 -49 12 -230 -1 -312 -63 -389 -338 -703 -699 -795 -398
-102 -809 40 -1031 355 -99 142 -141 237 -180 410 -13 58 -13 309 0 375 42
214 125 374 274 526 195 200 402 290 673 292 79 0 143 -5 202 -18z"/>
<path d="M1556 6264 l-36 -34 0 -1330 0 -1331 34 -34 33 -35 175 0 174 0 34
35 33 34 1 1318 c1 783 -2 1326 -8 1338 -5 11 -21 32 -36 46 -27 27 -27 27
-198 27 l-170 0 -36 -34z"/>
<path d="M23037 6261 l-35 -36 2 -1330 1 -1330 34 -33 34 -32 172 0 171 0 32
33 32 33 0 1333 0 1334 -33 32 -34 33 -171 -1 -171 0 -34 -36z"/>
</g>
</svg>
